# xmcd
#
# Track frame offsets:
#	150
#	14357
#	30201
#	44483
#	59819
#	71307
#	88873
#	108293
#	123743
#	140828
#	153150
#	164688
#	174337
#	189653
#	205653
#
# Disc length: 2897 seconds
#
# Revision: 1
# Processed by: cddbd v1.5.2PL0 Copyright (c) Steve Scherf et al.
# Submitted via: EZCDAudioConverter 8.5.0.1
#
DISCID=d20b4f0f
DTITLE=Hank Williams III - Greatest Hits
DYEAR=2017
DGENRE=Country
TTITLE0=Straight To Hell/Satan Is Real
TTITLE1=Country Heroes
TTITLE2=Crazed Country Rebel
TTITLE3=Mississippi Mud
TTITLE4=Pills I Took
TTITLE5=Cocaine Blues
TTITLE6=3 Shades Of Black
TTITLE7=Low Down
TTITLE8=D Ray White
TTITLE9=My Drinkin' Problem
TTITLE10=Six Pack Of Beer
TTITLE11=Thrown Out Of The Bar
TTITLE12=I Don't Know
TTITLE13=Cecil Brown
TTITLE14=Smoke and Wine
EXTD=
EXTT0=
EXTT1=
EXTT2=
EXTT3=
EXTT4=
EXTT5=
EXTT6=
EXTT7=
EXTT8=
EXTT9=
EXTT10=
EXTT11=
EXTT12=
EXTT13=
EXTT14=
PLAYORDER=
